<svg t="1728886388977" class="icon" viewBox="0 0 1024 1024" version="1.1" xmlns="http://www.w3.org/2000/svg" p-id="4206" width="230" height="230"><path d="M768 704c-38.5 0-73 17-96.5 44L381.2 602.8c1.9-8.6 2.8-17.6 2.8-26.8 0-23.7-6.5-45.9-17.8-65L575 302.2c19.1 11.3 41.3 17.8 65 17.8 70.6 0 128-57.4 128-128S710.6 64 640 64s-128 57.4-128 128c0 23.7 6.5 45.9 17.8 65L321 465.8c-19.1-11.3-41.3-17.8-65-17.8-70.6 0-128 57.4-128 128s57.4 128 128 128c38.5 0 73-17 96.5-44l290.3 145.2c-1.9 8.6-2.8 17.6-2.8 26.8 0 70.6 57.4 128 128 128s128-57.4 128-128-57.4-128-128-128zM640 128c35.3 0 64 28.7 64 64s-28.7 64-64 64-64-28.7-64-64 28.7-64 64-64zM256 640c-35.3 0-64-28.7-64-64s28.7-64 64-64 64 28.7 64 64-28.7 64-64 64z m512 256c-35.3 0-64-28.7-64-64s28.7-64 64-64 64 28.7 64 64-28.7 64-64 64z" fill="#2c2c2c" p-id="4207"></path></svg>